<?xml version="1.0" encoding="utf-8"?>
<!-- Generator: Adobe Illustrator 25.2.0, SVG Export Plug-In . SVG Version: 6.00 Build 0)  -->
<svg version="1.1" id="Слой_1" xmlns="http://www.w3.org/2000/svg" xmlns:xlink="http://www.w3.org/1999/xlink" x="0px" y="0px"
	 viewBox="0 0 50 50" style="enable-background:new 0 0 50 50;" xml:space="preserve">
<style type="text/css">
	.st0{fill:none;stroke:#FFFFFF;stroke-width:0.9367;stroke-miterlimit:5.6889;}
	.st1{fill:#FFFFFF;}
</style>
<polyline class="st0" points="28.6,28.6 25.5,31.8 22.4,28.7 "/>
<polyline class="st0" points="28.6,23.8 25.5,26.9 22.3,23.9 "/>
<g>
	<path class="st1" d="M20.5,22.1v-0.9h2.3c0.3,0,0.5-0.2,0.5-0.5v-0.4h-1.7c-0.7,0-1.2-0.2-1.6-0.5s-0.6-0.8-0.6-1.5
		s0.2-1.1,0.6-1.5c0.4-0.3,0.9-0.5,1.6-0.5h2.8v4.5c0,0.4-0.1,0.7-0.3,0.9c-0.2,0.2-0.5,0.3-1,0.3L20.5,22.1L20.5,22.1z M21.6,19.5
		h1.7v-2.2h-1.7c-0.3,0-0.6,0.1-0.8,0.3c-0.2,0.2-0.3,0.5-0.3,0.8c0,0.4,0.1,0.6,0.3,0.8C21,19.4,21.3,19.5,21.6,19.5z"/>
	<path class="st1" d="M27.3,20.5c-0.7,0-1.2-0.2-1.6-0.5s-0.6-0.8-0.6-1.5s0.2-1.2,0.6-1.5s0.9-0.5,1.6-0.5h1.4
		c0.7,0,1.2,0.2,1.6,0.5s0.6,0.8,0.6,1.5s-0.2,1.2-0.6,1.5s-0.9,0.5-1.6,0.5H27.3z M27.3,19.6h1.4c0.3,0,0.6-0.1,0.8-0.3
		c0.2-0.2,0.3-0.5,0.3-0.9s-0.1-0.7-0.3-0.9c-0.2-0.2-0.4-0.3-0.8-0.3h-1.4c-0.3,0-0.6,0.1-0.8,0.3c-0.2,0.2-0.3,0.5-0.3,0.9
		s0.1,0.7,0.3,0.9C26.7,19.5,27,19.6,27.3,19.6z"/>
</g>
</svg>
